<?xml version="1.0" encoding="UTF-8" standalone="no"?>
<!-- Created with Inkscape (http://www.inkscape.org/) -->

<svg
   width="90.96756mm"
   height="33.289127mm"
   viewBox="0 0 90.967569 33.289127"
   version="1.1"
   id="svg5"
   xml:space="preserve"
   inkscape:version="1.2 (dc2aedaf03, 2022-05-15)"
   sodipodi:docname="logo.svg"
   xmlns:inkscape="http://www.inkscape.org/namespaces/inkscape"
   xmlns:sodipodi="http://sodipodi.sourceforge.net/DTD/sodipodi-0.dtd"
   xmlns:xlink="http://www.w3.org/1999/xlink"
   xmlns="http://www.w3.org/2000/svg"
   xmlns:svg="http://www.w3.org/2000/svg"><sodipodi:namedview
     id="namedview7"
     pagecolor="#ffffff"
     bordercolor="#000000"
     borderopacity="0.25"
     inkscape:showpageshadow="2"
     inkscape:pageopacity="0.0"
     inkscape:pagecheckerboard="0"
     inkscape:deskcolor="#d1d1d1"
     inkscape:document-units="mm"
     showgrid="false"
     inkscape:zoom="1.9596736"
     inkscape:cx="225.29262"
     inkscape:cy="136.75747"
     inkscape:window-width="2560"
     inkscape:window-height="1494"
     inkscape:window-x="-11"
     inkscape:window-y="-11"
     inkscape:window-maximized="1"
     inkscape:current-layer="layer1" /><defs
     id="defs2"><linearGradient
       inkscape:collect="always"
       id="linearGradient57451"><stop
         style="stop-color:#77404e;stop-opacity:1;"
         offset="0"
         id="stop57447" /><stop
         style="stop-color:#77404e;stop-opacity:1;"
         offset="1"
         id="stop57449" /></linearGradient><linearGradient
       inkscape:collect="always"
       xlink:href="#linearGradient57451"
       id="linearGradient57453"
       x1="-10.974466"
       y1="11.076714"
       x2="54.688988"
       y2="11.076714"
       gradientUnits="userSpaceOnUse" /></defs><g
     inkscape:label="Layer 1"
     inkscape:groupmode="layer"
     id="layer1"
     transform="translate(35.594969,13.71957)"><g
       id="g62012"
       transform="matrix(0.81591655,0,0,0.81591655,-1.9907207,2.876093)"
       style="fill:#f4805f;fill-opacity:1;stroke:#5a3a3b;stroke-width:0.367685;stroke-dasharray:none;stroke-opacity:1"><path
         style="fill:#f4805f;fill-opacity:1;stroke:#5a3a3b;stroke-width:0.367685;stroke-dasharray:none;stroke-opacity:1"
         id="path742"
         sodipodi:type="arc"
         sodipodi:cx="-27.8941"
         sodipodi:cy="9.3924694"
         sodipodi:rx="3.049978"
         sodipodi:ry="2.1757801"
         sodipodi:start="6.2639571"
         sodipodi:end="6.2616635"
         sodipodi:open="true"
         sodipodi:arc-type="arc"
         d="m -24.844686,9.3506356 a 3.049978,2.1757801 0 0 1 -2.989024,2.2171874 3.049978,2.1757801 0 0 1 -3.109735,-2.1310251 3.049978,2.1757801 0 0 1 2.985457,-2.2196312 3.049978,2.1757801 0 0 1 3.113159,2.1284796"
         transform="rotate(10)" /><path
         style="fill:#f4805f;fill-opacity:1;stroke:#5a3a3b;stroke-width:0.367685;stroke-dasharray:none;stroke-opacity:1"
         d="m -38.062971,-7.3716215 c -1.212903,-2.1455367 -4.144339,-9.7541735 -2.396434,-11.9137765 1.826808,-1.486855 3.351112,-0.776811 5.014936,-0.03036 3.76279,1.688134 -2.541926,-0.849507 -2.669279,0.698839 0.122869,2.421943 1.753279,8.556397 3.770298,9.2654991 0,0 -2.468281,1.1524219 -3.719521,1.9797984 z"
         id="path1026"
         sodipodi:nodetypes="ccsccc" /><path
         style="fill:#f4805f;fill-opacity:1;stroke:#5a3a3b;stroke-width:0.367685;stroke-dasharray:none;stroke-opacity:1"
         d="m -34.254105,1.3477638 c 4.311633,-3.1320234 5.746943,-4.0060663 10.032884,-1.95340426 5.465705,2.69778566 -2.010564,11.81292646 -3.26522,14.48121946 -0.493254,1.135836 2.338956,2.809249 4.350783,3.718231 1.703576,0.466878 3.003351,0.485961 3.763948,0.130902 0.760597,-0.355063 1.351297,-1.533328 1.339213,-2.134223 -0.02148,-1.068074 -0.980088,-0.716373 -1.471288,-1.24269 -0.4912,-0.526316 -0.601192,-1.328118 -0.801014,-1.897662 -0.240092,-0.684322 -0.132054,-1.041898 2.84081,-0.989492 l 0.02507,6.547248 c -1.699239,0.0399 -1.996187,0.286614 -3.010469,1.047592 -1.829868,1.28849 -5.589903,-0.948885 -7.348681,-3.040253 -1.272832,-1.505212 -1.900154,-2.419643 -2.19148,-2.912639 -1.518785,-2.570163 -4.69956,1.244258 -6.003591,0.401737 -1.35632,-0.876304 -1.850013,-1.311897 -0.94685,-1.385848 2.427416,-0.198756 6.189001,-0.510372 6.937336,-0.542712 1.039627,-0.04487 1.273575,1.420559 2.477387,0.336228 2.814961,-4.0696098 3.844873,-9.4594091 2.117661,-10.8206668 -2.039682,-1.60752299 -6.582598,-0.31161763 -8.504093,1.2094876 -1.262791,0.9996585 -6.212026,4.6985547 -6.7599,4.5482147 1.183715,-1.6401901 4.091681,-3.8184971 6.417491,-5.5012727 z"
         id="path1110"
         sodipodi:nodetypes="ccccssssccccsssscssccc" /></g><text
       xml:space="preserve"
       style="font-style:normal;font-variant:normal;font-weight:normal;font-stretch:normal;font-size:22.5778px;font-family:'MS UI Gothic';-inkscape-font-specification:'MS UI Gothic';text-align:center;text-anchor:middle;fill:#003537;fill-opacity:1;stroke:#000000;stroke-width:0.152229;stroke-opacity:1"
       x="7.0862885"
       y="2.1690888"
       id="text1009"><tspan
         sodipodi:role="line"
         id="tspan1007"
         style="font-style:normal;font-variant:normal;font-weight:normal;font-stretch:normal;font-size:22.5778px;font-family:'Intel One Mono';-inkscape-font-specification:'Intel One Mono';fill:#003537;fill-opacity:1;stroke-width:0.152229"
         x="7.086288"
         y="2.1690888">FO<tspan
   style="fill:#404040;fill-opacity:1"
   id="tspan80957">X</tspan></tspan></text><text
       xml:space="preserve"
       style="font-style:normal;font-variant:normal;font-weight:normal;font-stretch:normal;font-size:22.5778px;font-family:'MS UI Gothic';-inkscape-font-specification:'MS UI Gothic';text-align:center;text-anchor:middle;fill:#404040;fill-opacity:1;stroke:#000000;stroke-width:0.152229;stroke-opacity:1"
       x="8.7748137"
       y="2.1690888"
       id="text1009-1"><tspan
         sodipodi:role="line"
         id="tspan1007-7"
         style="font-style:normal;font-variant:normal;font-weight:normal;font-stretch:normal;font-size:22.5778px;font-family:'Intel One Mono';-inkscape-font-specification:'Intel One Mono';fill:#404040;fill-opacity:1;stroke-width:0.152229"
         x="8.7748127"
         y="2.1690888">FO<tspan
   style="fill:#404040;fill-opacity:1"
   id="tspan80957-3">X</tspan></tspan></text><text
       xml:space="preserve"
       style="font-style:normal;font-variant:normal;font-weight:normal;font-stretch:normal;font-size:22.5778px;font-family:'Intel One Mono';-inkscape-font-specification:'Intel One Mono';text-align:center;text-anchor:middle;fill:#013437;fill-opacity:1;stroke:#000000;stroke-width:0.165225;stroke-opacity:1"
       x="21.497431"
       y="19.148277"
       id="text2697"><tspan
         sodipodi:role="line"
         id="tspan2695"
         style="font-size:22.5778px;fill:#013437;fill-opacity:1;stroke-width:0.165225"
         x="21.497429"
         y="19.148277">Utils</tspan></text><text
       xml:space="preserve"
       style="font-style:normal;font-variant:normal;font-weight:normal;font-stretch:normal;font-size:22.5778px;font-family:'Intel One Mono';-inkscape-font-specification:'Intel One Mono';text-align:center;text-anchor:middle;fill:#404040;fill-opacity:1;stroke:#000000;stroke-width:0.165225;stroke-opacity:1"
       x="22.710201"
       y="19.148277"
       id="text2697-4"><tspan
         sodipodi:role="line"
         id="tspan2695-8"
         style="font-size:22.5778px;fill:#404040;fill-opacity:1;stroke-width:0.165225"
         x="22.710199"
         y="19.148277">Utils</tspan></text></g></svg>
